<svg width="51" height="50" viewBox="0 0 51 50" fill="none" xmlns="http://www.w3.org/2000/svg">
<path d="M25.4998 8.4375L45.2082 23.7667C45.3766 23.8902 45.5185 24.0462 45.6256 24.2255C45.7327 24.4048 45.8028 24.6038 45.8317 24.8106C45.8606 25.0174 45.8477 25.228 45.7938 25.4298C45.7399 25.6315 45.6461 25.8205 45.518 25.9854C45.3899 26.1503 45.2299 26.2879 45.0477 26.3899C44.8655 26.492 44.6647 26.5565 44.4571 26.5796C44.2495 26.6027 44.0394 26.584 43.8392 26.5245C43.639 26.465 43.4528 26.366 43.2915 26.2333L41.6457 24.9542V41.6667C41.6457 42.0811 41.481 42.4785 41.188 42.7715C40.895 43.0645 40.4976 43.2292 40.0832 43.2292C39.6688 43.2292 39.2713 43.0645 38.9783 42.7715C38.6853 42.4785 38.5207 42.0811 38.5207 41.6667V22.5229L25.4998 12.3979L12.479 22.5229V41.6667C12.479 42.0811 12.3144 42.4785 12.0214 42.7715C11.7283 43.0645 11.3309 43.2292 10.9165 43.2292C10.5021 43.2292 10.1047 43.0645 9.81165 42.7715C9.51862 42.4785 9.354 42.0811 9.354 41.6667V24.9542L7.70817 26.2333C7.38006 26.4739 6.97105 26.5771 6.56809 26.5208C6.16513 26.4645 5.80002 26.2533 5.55037 25.932C5.30073 25.6107 5.18625 25.2048 5.23128 24.8004C5.27631 24.396 5.4773 24.0252 5.7915 23.7667L9.354 20.9958V15.625C9.354 14.1875 10.5207 13.0208 11.9582 13.0208H14.0415C14.6819 13.021 15.2999 13.2571 15.7772 13.6841C16.2545 14.111 16.5578 14.699 16.629 15.3354L25.4998 8.4375ZM13.5207 17.5521V16.1458H12.479V18.3333L13.5207 17.5521Z" fill="white"/>
<path d="M22.3753 30.7291C22.2372 30.7291 22.1047 30.784 22.007 30.8817C21.9094 30.9793 21.8545 31.1118 21.8545 31.25V41.6666C21.8545 42.081 21.6899 42.4785 21.3968 42.7715C21.1038 43.0645 20.7064 43.2291 20.292 43.2291C19.8776 43.2291 19.4802 43.0645 19.1871 42.7715C18.8941 42.4785 18.7295 42.081 18.7295 41.6666V31.25C18.7295 29.2375 20.3628 27.6041 22.3753 27.6041H28.6253C30.6378 27.6041 32.2712 29.2375 32.2712 31.25V41.6666C32.2712 42.081 32.1065 42.4785 31.8135 42.7715C31.5205 43.0645 31.1231 43.2291 30.7087 43.2291C30.2943 43.2291 29.8968 43.0645 29.6038 42.7715C29.3108 42.4785 29.1462 42.081 29.1462 41.6666V31.25C29.1462 31.1118 29.0913 30.9793 28.9936 30.8817C28.8959 30.784 28.7635 30.7291 28.6253 30.7291H22.3753Z" fill="white"/>
</svg>
