<svg width="19" height="22" viewBox="0 0 19 22" fill="none" xmlns="http://www.w3.org/2000/svg">
<path d="M9.5 21.9375L2.90938 14.1648C2.8178 14.0481 2.72717 13.9307 2.63751 13.8125C1.51228 12.3292 0.904161 10.518 0.906255 8.65625C0.906255 6.37705 1.81167 4.19119 3.42331 2.57955C5.03495 0.967911 7.2208 0.0625 9.5 0.0625C11.7792 0.0625 13.9651 0.967911 15.5767 2.57955C17.1883 4.19119 18.0938 6.37705 18.0938 8.65625C18.0956 10.5171 17.4878 12.3274 16.3633 13.8102L16.3625 13.8125C16.3625 13.8125 16.1281 14.1203 16.093 14.1617L9.5 21.9375ZM3.88516 12.8711C3.88516 12.8711 4.06719 13.1117 4.1086 13.1633L9.5 19.5219L14.8984 13.1547C14.9328 13.1117 15.1156 12.8695 15.1164 12.8688C16.0361 11.6571 16.5331 10.1774 16.5313 8.65625C16.5313 6.79145 15.7905 5.00302 14.4718 3.68441C13.1532 2.36579 11.3648 1.625 9.5 1.625C7.6352 1.625 5.84678 2.36579 4.52816 3.68441C3.20955 5.00302 2.46876 6.79145 2.46876 8.65625C2.46683 10.1784 2.96442 11.6591 3.88516 12.8711Z" fill="black"/>
</svg>
